<svg width="390" height="382" viewBox="0 0 390 382" fill="none" xmlns="http://www.w3.org/2000/svg">
<path opacity="0.32" d="M283.31 105.548C280.594 105.548 278.058 106.521 276.066 108.162C272.565 99.8349 264.416 94 254.939 94C242.262 94 232 104.333 232 117.096H271.841H277.877H294.779C294.779 110.715 289.648 105.548 283.31 105.548Z" fill="white"/>
<path opacity="0.32" d="M138.31 11.5482C135.594 11.5482 133.058 12.5207 131.066 14.1618C127.565 5.8349 119.416 0 109.939 0C97.262 0 87 10.3326 87 23.0965H126.841H132.877H149.779C149.779 16.7145 144.648 11.5482 138.31 11.5482Z" fill="white"/>
<path d="M198.928 259.746H100.292V377.538H198.928V259.746Z" fill="#EA633A"/>
<path d="M194.462 319.25H183.596V324.295H194.462V319.25Z" fill="#D85335"/>
<path d="M111.158 302.718H100.292V307.763H111.158V302.718Z" fill="#D85335"/>
<path d="M149.309 353.348H138.443V358.393H149.309V353.348Z" fill="#D85335"/>
<path d="M170.074 372.19H159.208V377.235H170.074V372.19Z" fill="#D85335"/>
<path d="M188.424 312.99H177.559V318.035H188.424V312.99Z" fill="#D85335"/>
<path d="M198.928 259.746H100.292V287.705H198.928V259.746Z" fill="#CE4829" stroke="#CE4829" stroke-width="6" stroke-miterlimit="10" stroke-linecap="round" stroke-linejoin="round"/>
<path d="M198.928 259.746H100.292V377.538H198.928V259.746Z" stroke="#1C1A34" stroke-width="6" stroke-miterlimit="10" stroke-linecap="round" stroke-linejoin="round"/>
<path d="M219.633 281.506H78.2588L114.659 184.258H256.093L219.633 281.506Z" fill="#EC1E39"/>
<path d="M101.862 269.776H90.9961V274.82H101.862V269.776Z" fill="#F22F50"/>
<path d="M108.079 263.515H97.2134V268.56H108.079V263.515Z" fill="#DD1738"/>
<path d="M95.8256 263.515H84.96V268.56H95.8256V263.515Z" fill="#F22F50"/>
<path d="M125.102 204.011H114.236V209.056H125.102V204.011Z" fill="#F22F50"/>
<path d="M119.066 197.69H108.201V202.735H119.066V197.69Z" fill="#F22F50"/>
<path opacity="0.82" d="M200.075 281.506L189.874 241.573L182.207 247.834C178.887 250.508 174.058 249.9 171.523 246.496C169.108 243.214 169.772 238.595 172.972 236.103L223.919 196.9C226.636 194.833 230.378 194.833 233.035 196.961L249.273 209.846L200.075 281.506Z" fill="#C91B38"/>
<path d="M219.633 281.506H78.2588L114.659 184.258H256.093L219.633 281.506Z" stroke="#1C1A34" stroke-width="6" stroke-miterlimit="10" stroke-linecap="round" stroke-linejoin="round"/>
<path d="M186.131 162.194H162.951V184.258H186.131V162.194Z" fill="#1C1931"/>
<path d="M185.406 176.235H176.472V181.279H185.406V176.235Z" fill="#272544"/>
<path d="M170.074 171.19H161.743V176.235H170.074V171.19Z" fill="#272544"/>
<path d="M186.131 162.194H162.951V184.258H186.131V162.194Z" stroke="#1C1A34" stroke-width="6" stroke-miterlimit="10" stroke-linecap="round" stroke-linejoin="round"/>
<path d="M191.986 153.382H157.155V162.195H191.986V153.382Z" fill="#282642"/>
<path d="M191.986 153.382H157.155V162.195H191.986V153.382Z" stroke="#1C1A34" stroke-width="6" stroke-miterlimit="10" stroke-linecap="round" stroke-linejoin="round"/>
<path d="M176.17 294.938H123.049V338.7H176.17V294.938Z" fill="#71B8BC"/>
<path opacity="0.62" d="M123.049 319.798V335.844L153.895 294.938H141.762L123.049 319.798Z" fill="#D0F6FB"/>
<path opacity="0.62" d="M125.042 338.7H131.078L164.098 294.938H158.062L125.042 338.7Z" fill="#D0F6FB"/>
<path d="M176.17 294.938H123.049V338.7H176.17V294.938Z" stroke="#1C1A34" stroke-width="6" stroke-miterlimit="10" stroke-linecap="round" stroke-linejoin="round"/>
<path d="M179.189 341.131H120.032V348.425H179.189V341.131Z" fill="#D14D2F" stroke="#CE4829" stroke-width="6" stroke-miterlimit="10" stroke-linecap="round" stroke-linejoin="round"/>
<path d="M179.189 338.7H120.032V345.994H179.189V338.7Z" fill="#656B82"/>
<path d="M179.189 338.7H120.032V345.994H179.189V338.7Z" stroke="#1C1A34" stroke-width="6" stroke-miterlimit="10" stroke-linecap="round" stroke-linejoin="round"/>
<path d="M427.288 272.146C436.585 287.766 443.345 338.882 414.189 338.882C385.093 338.882 391.854 287.766 401.09 272.146C404.953 265.703 410.024 262.725 414.189 262.725C418.354 262.725 423.425 265.703 427.288 272.146Z" fill="#1FBE6A"/>
<path d="M427.288 272.146C436.585 287.766 443.345 338.882 414.189 338.882C385.093 338.882 391.854 287.766 401.09 272.146C404.953 265.703 410.024 262.725 414.189 262.725C418.354 262.725 423.425 265.703 427.288 272.146Z" stroke="#1C1A34" stroke-width="6" stroke-miterlimit="10" stroke-linecap="round" stroke-linejoin="round"/>
<path d="M399.461 254.52C408.757 272.754 415.518 332.44 386.362 332.44C357.205 332.44 364.027 272.754 373.262 254.52C377.126 246.983 382.196 243.519 386.362 243.519C390.527 243.519 395.597 246.983 399.461 254.52Z" fill="#2CDF78"/>
<path d="M399.461 254.52C408.757 272.754 415.518 332.44 386.362 332.44C357.205 332.44 364.027 272.754 373.262 254.52C377.126 246.983 382.196 243.519 386.362 243.519C390.527 243.519 395.597 246.983 399.461 254.52Z" stroke="#1C1A34" stroke-width="6" stroke-miterlimit="10" stroke-linecap="round" stroke-linejoin="round"/>
<path d="M55.7429 330.616C43.1871 330.616 33.6495 317.609 33.5891 303.447C33.2269 267.77 42.2816 229.843 57.1917 191.065C57.8557 189.302 60.0288 189.363 60.6325 191.186C73.6109 230.694 79.6474 268.317 77.9572 304.298C77.4139 318.217 67.997 330.616 55.7429 330.616Z" fill="#2BCCA0"/>
<path d="M55.7429 330.616C43.1871 330.616 33.6495 317.609 33.5891 303.447C33.2269 267.77 42.2816 229.843 57.1917 191.065C57.8557 189.302 60.0288 189.363 60.6325 191.186C73.6109 230.694 79.6474 268.317 77.9572 304.298C77.4139 318.217 67.997 330.616 55.7429 330.616Z" stroke="#1C1A34" stroke-width="6" stroke-miterlimit="10" stroke-linecap="round" stroke-linejoin="round"/>
<path d="M29.1219 226.986C38.4181 248.016 45.179 316.819 16.0228 316.819C-13.1334 316.819 -6.31218 248.016 2.92363 226.986C6.78697 218.295 11.8576 214.283 16.0228 214.283C20.188 214.283 25.319 218.295 29.1219 226.986Z" fill="#21AA7F"/>
<path d="M29.1219 226.986C38.4181 248.016 45.179 316.819 16.0228 316.819C-13.1334 316.819 -6.31218 248.016 2.92363 226.986C6.78697 218.295 11.8576 214.283 16.0228 214.283C20.1879 214.283 25.319 218.295 29.1219 226.986Z" stroke="#1C1A34" stroke-width="6" stroke-miterlimit="10" stroke-linecap="round" stroke-linejoin="round"/>
<path d="M1.29431 254.52C10.5905 272.754 17.3513 332.44 -11.8049 332.44C-40.961 332.44 -34.1398 272.754 -24.904 254.52C-21.0407 246.983 -15.97 243.519 -11.8049 243.519C-7.63969 243.519 -2.50867 246.983 1.29431 254.52Z" fill="#2BCCA0"/>
<path d="M1.29431 254.52C10.5905 272.754 17.3513 332.44 -11.8049 332.44C-40.961 332.44 -34.1398 272.754 -24.904 254.52C-21.0407 246.983 -15.97 243.519 -11.8049 243.519C-7.63969 243.519 -2.50867 246.983 1.29431 254.52Z" stroke="#1C1A34" stroke-width="6" stroke-miterlimit="10" stroke-linecap="round" stroke-linejoin="round"/>
<path d="M343.924 377.6H198.928V221.455L271.426 158.669L343.924 221.455V377.6Z" fill="#FF9839"/>
<path d="M344.105 258.47H333.239V263.515H344.105V258.47Z" fill="#ED852F"/>
<path d="M338.069 264.731H327.204V269.776H338.069V264.731Z" fill="#ED852F"/>
<path d="M332.033 258.47H321.167V263.515H332.033V258.47Z" fill="#ED852F"/>
<path d="M287.424 205.409H276.558V210.454H287.424V205.409Z" fill="#ED852F"/>
<path d="M215.831 264.731H204.965V269.776H215.831V264.731Z" fill="#ED852F"/>
<path d="M330.403 350.431H319.538V355.475H330.403V350.431Z" fill="#ED852F"/>
<path d="M245.167 228.688H234.302V233.733H245.167V228.688Z" fill="#ED852F"/>
<path d="M209.794 258.47H198.928V263.515H209.794V258.47Z" fill="#ED852F"/>
<path d="M204.361 186.567H193.496V191.612H204.361V186.567Z" fill="#DD1738"/>
<path d="M181.604 261.57H170.738V266.615H181.604V261.57Z" fill="#DD1738"/>
<path d="M276.135 311.774H265.269V316.819H276.135V311.774Z" fill="#ED852F"/>
<path d="M270.098 305.514H259.232V310.559H270.098V305.514Z" fill="#ED852F"/>
<path d="M198.928 221.455V230.937L271.245 169.245L343.924 231.18V221.455L271.426 158.669L198.928 221.455Z" fill="#EA633A"/>
<path d="M343.924 377.6H198.928V221.455L271.426 158.669L343.924 221.455V377.6Z" stroke="#1C1A34" stroke-width="6" stroke-miterlimit="10" stroke-linecap="round" stroke-linejoin="round"/>
<path d="M319.537 294.938H276.074V377.6H319.537V294.938Z" fill="#99393E"/>
<path d="M319.537 294.938H314.587V377.6H319.537V294.938Z" fill="#822E36"/>
<path d="M319.537 294.938H276.074V377.6H319.537V294.938Z" stroke="#1C1A34" stroke-width="6" stroke-miterlimit="10" stroke-linecap="round" stroke-linejoin="round"/>
<path d="M259.233 294.938H221.807V338.7H259.233V294.938Z" fill="#89C6CC"/>
<path opacity="0.92" d="M221.807 331.346L249.273 294.938H237.139L221.807 315.3V331.346Z" fill="#D0F6FB"/>
<path opacity="0.92" d="M259.233 295.303V294.938H253.438L221.807 336.877V338.7H226.455L259.233 295.303Z" fill="#D0F6FB"/>
<path d="M263.458 341.131H217.581V348.425H263.458V341.131Z" fill="#EA633A" stroke="#EA633A" stroke-width="6" stroke-miterlimit="10" stroke-linecap="round" stroke-linejoin="round"/>
<path d="M259.233 294.938H221.807V338.7H259.233V294.938Z" stroke="#1C1A34" stroke-width="6" stroke-miterlimit="10" stroke-linecap="round" stroke-linejoin="round"/>
<path d="M263.458 338.7H217.581V345.994H263.458V338.7Z" fill="#656B82"/>
<path d="M263.458 338.7H217.581V345.994H263.458V338.7Z" stroke="#1C1A34" stroke-width="6" stroke-miterlimit="10" stroke-linecap="round" stroke-linejoin="round"/>
<path d="M271.426 245.099C281.094 245.099 288.932 237.207 288.932 227.472C288.932 217.738 281.094 209.846 271.426 209.846C261.758 209.846 253.92 217.738 253.92 227.472C253.92 237.207 261.758 245.099 271.426 245.099Z" fill="#98AAB5"/>
<path d="M271.427 209.846C269.737 209.846 268.107 210.089 266.598 210.515C273.902 212.642 279.274 219.389 279.274 227.472C279.274 235.495 273.902 242.303 266.598 244.43C268.107 244.856 269.737 245.099 271.427 245.099C281.085 245.099 288.933 237.197 288.933 227.472C288.933 217.687 281.085 209.846 271.427 209.846Z" fill="#7B929E"/>
<path d="M271.426 245.099C281.094 245.099 288.932 237.207 288.932 227.472C288.932 217.738 281.094 209.846 271.426 209.846C261.758 209.846 253.92 217.738 253.92 227.472C253.92 237.207 261.758 245.099 271.426 245.099Z" stroke="#1C1A34" stroke-width="6" stroke-miterlimit="10" stroke-linecap="round" stroke-linejoin="round"/>
<path d="M326.781 377.599H268.831V372.737C268.831 368.057 272.634 364.228 277.282 364.228H318.33C322.978 364.228 326.781 368.057 326.781 372.737V377.599Z" fill="#6E818E"/>
<path d="M326.781 371.886H268.831V377.539H326.781V371.886Z" fill="#5C6F7A"/>
<path d="M326.781 377.599H268.831V372.737C268.831 368.057 272.634 364.228 277.282 364.228H318.33C322.978 364.228 326.781 368.057 326.781 372.737V377.599Z" stroke="#1C1A34" stroke-width="6" stroke-miterlimit="10" stroke-linecap="round" stroke-linejoin="round"/>
<path d="M-32.812 377.599H442.5" stroke="#1C1A34" stroke-width="8" stroke-miterlimit="10" stroke-linecap="round" stroke-linejoin="round"/>
<path d="M364.268 232.821C362.215 235.313 358.473 235.678 355.998 233.551L271.246 161.283L186.494 233.551C184.019 235.678 180.336 235.313 178.224 232.821C176.171 230.329 176.473 226.682 178.948 224.616L262.251 153.685L271.306 145.966L280.3 153.685L363.604 224.616C366.018 226.622 366.32 230.329 364.268 232.821Z" fill="#FF4B53"/>
<path d="M214.321 207.294H205.629V212.338H214.321V207.294Z" fill="#EA3F54"/>
<path d="M278.308 153.989H270.28V159.034H278.308V153.989Z" fill="#EA3F54"/>
<path d="M364.268 232.821C362.215 235.313 358.473 235.678 355.998 233.551L271.246 161.283L186.494 233.551C184.019 235.678 180.336 235.313 178.224 232.821C176.171 230.329 176.473 226.682 178.948 224.616L262.251 153.685L271.306 145.966L280.3 153.685L363.604 224.616C366.018 226.622 366.32 230.329 364.268 232.821Z" stroke="#1C1A34" stroke-width="6" stroke-miterlimit="10" stroke-linecap="round" stroke-linejoin="round"/>
<path d="M386.663 377.6V284.849" stroke="#1C1A34" stroke-width="6" stroke-miterlimit="10" stroke-linecap="round" stroke-linejoin="round"/>
<path d="M271.427 245.099V209.846" stroke="#1C1A34" stroke-width="6" stroke-miterlimit="10" stroke-linecap="round" stroke-linejoin="round"/>
<path d="M253.92 227.472H288.932" stroke="#1C1A34" stroke-width="6" stroke-miterlimit="10" stroke-linecap="round" stroke-linejoin="round"/>
<path d="M112.486 336.269H-1V338.7H112.486V336.269Z" stroke="#1C1A34" stroke-width="6" stroke-miterlimit="10" stroke-linecap="round" stroke-linejoin="round"/>
<path d="M112.486 353.47H-1V355.901H112.486V353.47Z" stroke="#1C1A34" stroke-width="6" stroke-miterlimit="10" stroke-linecap="round" stroke-linejoin="round"/>
<path d="M16.3857 377.599V252.757" stroke="#1C1A34" stroke-width="6" stroke-miterlimit="10" stroke-linecap="round" stroke-linejoin="round"/>
<path d="M57.1914 377.6V261.996" stroke="#1C1A34" stroke-width="6" stroke-miterlimit="10" stroke-linecap="round" stroke-linejoin="round"/>
<path d="M105.001 377.599H96.5498V324.721L100.775 317.184L105.001 324.721V377.599Z" fill="#663333"/>
<path d="M105.001 377.599H96.5498V324.721L100.775 317.184L105.001 324.721V377.599Z" stroke="#1C1A34" stroke-width="6" stroke-miterlimit="10" stroke-linecap="round" stroke-linejoin="round"/>
<path d="M82.5448 377.599H74.0938V324.721L78.3193 317.184L82.5448 324.721V377.599Z" fill="#663333"/>
<path d="M82.5448 377.599H74.0938V324.721L78.3193 317.184L82.5448 324.721V377.599Z" stroke="#1C1A34" stroke-width="6" stroke-miterlimit="10" stroke-linecap="round" stroke-linejoin="round"/>
<path d="M60.1498 377.599H51.6987V324.721L55.9243 317.184L60.1498 324.721V377.599Z" fill="#663333"/>
<path d="M60.1498 377.599H51.6987V324.721L55.9243 317.184L60.1498 324.721V377.599Z" stroke="#1C1A34" stroke-width="6" stroke-miterlimit="10" stroke-linecap="round" stroke-linejoin="round"/>
<path d="M37.7548 377.599H29.3037V324.721L33.5292 317.184L37.7548 324.721V377.599Z" fill="#663333"/>
<path d="M37.7548 377.599H29.3037V324.721L33.5292 317.184L37.7548 324.721V377.599Z" stroke="#1C1A34" stroke-width="6" stroke-miterlimit="10" stroke-linecap="round" stroke-linejoin="round"/>
<path d="M15.3593 377.599H6.9082V324.721L11.1337 317.184L15.3593 324.721V377.599Z" fill="#663333"/>
<path d="M15.3593 377.599H6.9082V324.721L11.1337 317.184L15.3593 324.721V377.599Z" stroke="#1C1A34" stroke-width="6" stroke-miterlimit="10" stroke-linecap="round" stroke-linejoin="round"/>
<path d="M283.137 336.755V350.431" stroke="#1C1A34" stroke-width="6" stroke-miterlimit="10" stroke-linecap="round" stroke-linejoin="round"/>
<path d="M386.663 296.337L393.182 291.474" stroke="#1C1A34" stroke-width="6" stroke-miterlimit="10" stroke-linecap="round" stroke-linejoin="round"/>
<path d="M386.663 313.963L396.804 306.852" stroke="#1C1A34" stroke-width="6" stroke-miterlimit="10" stroke-linecap="round" stroke-linejoin="round"/>
<path d="M386.36 304.055L379.539 297.552" stroke="#1C1A34" stroke-width="6" stroke-miterlimit="10" stroke-linecap="round" stroke-linejoin="round"/>
<path d="M66.1254 292.386L57.1914 302.718" stroke="#1C1A34" stroke-width="6" stroke-miterlimit="10" stroke-linecap="round" stroke-linejoin="round"/>
<path d="M63.1071 268.134L57.1914 276.887" stroke="#1C1A34" stroke-width="6" stroke-miterlimit="10" stroke-linecap="round" stroke-linejoin="round"/>
<path d="M57.1923 290.562L49.2241 284.849" stroke="#1C1A34" stroke-width="6" stroke-miterlimit="10" stroke-linecap="round" stroke-linejoin="round"/>
<path d="M309.275 308.797H286.396V331.225H309.275V308.797Z" fill="#89C6CC"/>
<path opacity="0.92" d="M286.396 325.937L299.315 308.797H287.242L286.396 309.891V325.937Z" fill="#D0F6FB"/>
<path opacity="0.92" d="M302.755 308.797L286.396 330.495V331.225H288.871L305.774 308.797H302.755Z" fill="#D0F6FB"/>
<path d="M309.275 308.797H286.396V331.225H309.275V308.797Z" stroke="#1C1A34" stroke-width="6" stroke-miterlimit="10" stroke-linecap="round" stroke-linejoin="round"/>
<path d="M23.871 263.515L16.3857 271.113" stroke="#1C1A34" stroke-width="6" stroke-miterlimit="10" stroke-linecap="round" stroke-linejoin="round"/>
<path d="M16.3857 290.562L25.9837 281.506" stroke="#1C1A34" stroke-width="6" stroke-miterlimit="10" stroke-linecap="round" stroke-linejoin="round"/>
<path d="M16.3853 279.014L9.26221 272.511" stroke="#1C1A34" stroke-width="6" stroke-miterlimit="10" stroke-linecap="round" stroke-linejoin="round"/>
<path opacity="0.32" d="M96.6954 103.352C96.7557 102.866 96.7558 102.319 96.7558 101.833C96.7558 92.5334 89.2705 84.9967 80.0347 84.9967C76.8354 84.9967 73.8775 85.9084 71.3422 87.4279C69.2294 85.9084 66.6337 84.9967 63.8569 84.9967C62.8307 84.9967 61.8649 85.1182 60.8991 85.3614C59.5107 76.7914 52.1462 70.2271 43.2122 70.2271C41.4012 70.2271 39.6507 70.4702 38.0208 71.0172C33.252 67.2489 27.2759 65 20.7565 65C6.93297 65 -4.53634 75.0287 -6.89057 88.2788C-7.0113 88.2788 -7.19239 88.2788 -7.31312 88.2788C-16.2471 88.2788 -23.6116 94.8431 -25 103.413H96.6954V103.352Z" fill="white"/>
<path opacity="0.32" d="M408.695 52.3523C408.756 51.8661 408.756 51.319 408.756 50.8328C408.756 41.5334 401.271 33.9967 392.035 33.9967C388.835 33.9967 385.877 34.9084 383.342 36.4279C381.229 34.9084 378.634 33.9967 375.857 33.9967C374.831 33.9967 373.865 34.1182 372.899 34.3614C371.511 25.7914 364.146 19.2271 355.212 19.2271C353.401 19.2271 351.651 19.4702 350.021 20.0172C345.252 16.2489 339.276 14 332.756 14C318.933 14 307.464 24.0287 305.109 37.2788C304.989 37.2788 304.808 37.2788 304.687 37.2788C295.753 37.2788 288.388 43.8431 287 52.4131H408.695V52.3523Z" fill="white"/>
</svg>
