<svg width="390" height="394" viewBox="0 0 390 394" fill="none" xmlns="http://www.w3.org/2000/svg">
<path d="M374.342 280.37C356.234 280.506 342.671 271.645 331.413 259.308C329.243 256.854 327.14 253.582 325.241 249.902C315.544 231.498 312.966 210.164 317.375 189.784C324.631 156.385 340.501 96.5399 368.102 52.7806C371.019 48.1457 377.733 48.1457 380.649 52.7806C408.183 96.5399 424.052 156.385 431.377 189.784C435.785 210.096 433.14 231.498 423.51 249.902C421.611 253.514 419.508 256.786 417.338 259.308C406.013 271.645 392.449 280.506 374.342 280.37Z" fill="#FF6550"/>
<path d="M127.254 307.632C109.17 307.811 95.6234 296.205 84.3799 280.047C82.2125 276.833 80.1127 272.548 78.2162 267.727C68.5305 243.624 65.9567 215.682 70.3593 188.99C77.6067 145.246 93.456 66.8655 121.023 9.55287C123.936 3.48238 130.641 3.48238 133.553 9.55287C161.053 66.8655 176.902 145.246 184.217 188.99C188.62 215.593 185.978 243.624 176.36 267.727C174.464 272.459 172.364 276.744 170.197 280.047C158.885 296.205 145.339 307.811 127.254 307.632Z" fill="#FF6550"/>
<path opacity="0.4" d="M430.562 189.784C423.306 156.385 407.437 96.54 379.835 52.7808C377.664 49.3727 373.392 48.4866 370.137 50.1907C372.714 52.3036 374.884 55.0301 376.512 58.37C397.603 101.584 410.421 151.069 416.931 180.991C421.746 203.007 418.898 226.046 408.522 246.017C406.351 250.175 404.046 253.923 401.536 256.786C390.957 268.373 378.478 277.234 362.609 279.347C366.068 280.097 369.662 280.438 373.528 280.438C391.635 280.574 405.199 271.713 416.456 259.376C418.626 256.922 420.729 253.651 422.628 249.97C432.394 231.498 435.038 210.164 430.562 189.784Z" fill="#FF7364"/>
<path opacity="0.4" d="M183.55 217.048C176.293 183.65 160.424 123.804 132.822 80.0452C130.652 76.6371 126.379 75.751 123.124 77.4551C125.701 79.568 127.871 82.2945 129.499 85.6344C150.59 128.848 163.408 178.333 169.918 208.256C174.733 230.272 171.885 253.31 161.509 273.281C159.339 277.439 157.033 281.188 154.524 284.051C143.944 295.638 131.466 304.499 115.596 306.612C119.055 307.362 122.649 307.702 126.515 307.702C144.622 307.839 158.186 298.978 169.444 286.641C171.614 284.187 173.716 280.915 175.615 277.234C185.381 258.763 188.026 237.429 183.55 217.048Z" fill="#FF7364"/>
<path d="M374.342 280.37C356.234 280.506 342.671 271.645 331.413 259.308C329.243 256.854 327.14 253.582 325.241 249.902C315.544 231.498 312.966 210.164 317.375 189.784C324.631 156.385 340.501 96.5399 368.102 52.7806C371.019 48.1457 377.733 48.1457 380.649 52.7806C408.183 96.5399 424.052 156.385 431.377 189.784C435.785 210.096 433.14 231.498 423.51 249.902C421.611 253.514 419.508 256.786 417.338 259.308C406.013 271.645 392.449 280.506 374.342 280.37Z" stroke="#00233A" stroke-width="10" stroke-miterlimit="10" stroke-linecap="round" stroke-linejoin="round"/>
<path d="M127.254 304.906C109.17 305.083 95.6234 293.582 84.3799 277.569C82.2125 274.384 80.1127 270.138 78.2162 265.361C68.5305 241.474 65.9567 213.784 70.3593 187.332C77.6067 143.983 93.456 66.3081 121.023 9.51186C123.936 3.49605 130.641 3.49605 133.553 9.51186C161.053 66.3081 176.902 143.983 184.217 187.332C188.62 213.695 185.978 241.474 176.36 265.361C174.464 270.049 172.364 274.296 170.197 277.569C158.885 293.582 145.339 305.083 127.254 304.906Z" stroke="#00233A" stroke-width="10" stroke-miterlimit="10" stroke-linecap="round" stroke-linejoin="round"/>
<path d="M374.342 241.655L402.825 221.002" stroke="#00233A" stroke-width="10" stroke-miterlimit="10" stroke-linecap="round" stroke-linejoin="round"/>
<path d="M374.342 213.027L348.91 193.26" stroke="#00233A" stroke-width="10" stroke-miterlimit="10" stroke-linecap="round" stroke-linejoin="round"/>
<path d="M311.204 299.455H267.868C255.118 299.455 244.742 289.026 244.742 276.212V194.419C244.742 181.605 255.118 171.176 267.868 171.176H311.136C323.886 171.176 334.262 181.605 334.262 194.419V276.212C334.33 289.026 323.954 299.455 311.204 299.455Z" fill="#E97E1C"/>
<path opacity="0.74" d="M310.525 171.176H300.352C313.102 171.176 323.478 181.605 323.478 194.419V276.212C323.478 289.026 313.102 299.455 300.352 299.455H310.525C323.275 299.455 333.651 289.026 333.651 276.212V194.419C333.651 181.536 323.275 171.176 310.525 171.176Z" fill="#E8531F"/>
<path d="M311.204 299.455H267.868C255.118 299.455 244.742 289.026 244.742 276.212V194.419C244.742 181.605 255.118 171.176 267.868 171.176H311.136C323.886 171.176 334.262 181.605 334.262 194.419V276.212C334.33 289.026 323.954 299.455 311.204 299.455Z" stroke="#00233A" stroke-width="10" stroke-miterlimit="10" stroke-linecap="round" stroke-linejoin="round"/>
<path d="M289.57 280.37L308.559 262.784" stroke="#00233A" stroke-width="10" stroke-miterlimit="10" stroke-linecap="round" stroke-linejoin="round"/>
<path d="M289.569 251.197L268.545 241.654" stroke="#00233A" stroke-width="10" stroke-miterlimit="10" stroke-linecap="round" stroke-linejoin="round"/>
<path d="M374.342 356.847V164.633" stroke="#00233A" stroke-width="10" stroke-miterlimit="10" stroke-linecap="round" stroke-linejoin="round"/>
<path d="M127.329 384.111L127.281 217.662" stroke="#00233A" stroke-width="10" stroke-miterlimit="10" stroke-linecap="round" stroke-linejoin="round"/>
<path d="M289.57 221.207V356.847" stroke="#00233A" stroke-width="10" stroke-miterlimit="10" stroke-linecap="round" stroke-linejoin="round"/>
<path d="M41.9657 312.405C64.4385 312.405 82.6564 263.579 82.6564 203.348C82.6564 143.117 64.4385 94.2908 41.9657 94.2908C19.4928 94.2908 1.2749 143.117 1.2749 203.348C1.2749 263.579 19.4928 312.405 41.9657 312.405Z" fill="#F8C569"/>
<path opacity="0.53" d="M41.9666 94.2908C41.6275 94.2908 41.2884 94.2908 40.8815 94.3589C59.6671 104.038 73.841 148.274 73.841 201.44C73.841 260.74 56.2084 308.929 34.2354 310.429C36.7446 311.724 39.3217 312.405 41.9666 312.405C64.4143 312.405 82.6574 263.602 82.6574 203.348C82.6574 143.094 64.4143 94.2908 41.9666 94.2908Z" fill="#D89535"/>
<path d="M41.9657 312.405C64.4385 312.405 82.6564 263.579 82.6564 203.348C82.6564 143.117 64.4385 94.2908 41.9657 94.2908C19.4928 94.2908 1.2749 143.117 1.2749 203.348C1.2749 263.579 19.4928 312.405 41.9657 312.405Z" stroke="#00233A" stroke-width="10" stroke-miterlimit="10" stroke-linecap="round" stroke-linejoin="round"/>
<path d="M41.7627 167.359V380.703" stroke="#00233A" stroke-width="10" stroke-miterlimit="10" stroke-linecap="round" stroke-linejoin="round"/>
<path d="M41.9663 234.157L58.0392 213.027" stroke="#00233A" stroke-width="10" stroke-miterlimit="10" stroke-linecap="round" stroke-linejoin="round"/>
<path d="M41.9659 275.735L24.6045 257.536" stroke="#00233A" stroke-width="10" stroke-miterlimit="10" stroke-linecap="round" stroke-linejoin="round"/>
<path d="M41.7624 203.007L27.7241 187.126" stroke="#00233A" stroke-width="10" stroke-miterlimit="10" stroke-linecap="round" stroke-linejoin="round"/>
<path opacity="0.6" d="M62.3115 191.147C65.4203 191.147 67.9404 188.614 67.9404 185.49C67.9404 182.365 65.4203 179.833 62.3115 179.833C59.2028 179.833 56.6826 182.365 56.6826 185.49C56.6826 188.614 59.2028 191.147 62.3115 191.147Z" fill="#EF8C3A"/>
<path d="M24.6046 162.793C26.5897 162.793 28.1989 161.175 28.1989 159.18C28.1989 157.185 26.5897 155.568 24.6046 155.568C22.6195 155.568 21.0103 157.185 21.0103 159.18C21.0103 161.175 22.6195 162.793 24.6046 162.793Z" fill="#FFD766"/>
<path d="M48.002 154.477C49.6875 154.477 51.0538 153.103 51.0538 151.409C51.0538 149.715 49.6875 148.342 48.002 148.342C46.3165 148.342 44.9502 149.715 44.9502 151.409C44.9502 153.103 46.3165 154.477 48.002 154.477Z" fill="#FFD766"/>
<path opacity="0.38" d="M269.767 206.143C273.587 206.143 276.684 203.03 276.684 199.19C276.684 195.351 273.587 192.238 269.767 192.238C265.946 192.238 262.849 195.351 262.849 199.19C262.849 203.03 265.946 206.143 269.767 206.143Z" fill="#F8C569"/>
<path opacity="0.38" d="M291.468 208.187C294.202 208.187 296.418 205.96 296.418 203.212C296.418 200.464 294.202 198.236 291.468 198.236C288.734 198.236 286.517 200.464 286.517 203.212C286.517 205.96 288.734 208.187 291.468 208.187Z" fill="#F8C569"/>
<path opacity="0.74" d="M269.766 270.146C272.5 270.146 274.717 267.918 274.717 265.17C274.717 262.422 272.5 260.195 269.766 260.195C267.032 260.195 264.815 262.422 264.815 265.17C264.815 267.918 267.032 270.146 269.766 270.146Z" fill="#E8531F"/>
<path opacity="0.74" d="M306.185 229.522C308.469 229.522 310.322 227.661 310.322 225.364C310.322 223.068 308.469 221.207 306.185 221.207C303.9 221.207 302.048 223.068 302.048 225.364C302.048 227.661 303.9 229.522 306.185 229.522Z" fill="#E8531F"/>
<path opacity="0.6" d="M20.4678 229.249C23.5765 229.249 26.0966 226.716 26.0966 223.592C26.0966 220.467 23.5765 217.935 20.4678 217.935C17.359 217.935 14.8389 220.467 14.8389 223.592C14.8389 226.716 17.359 229.249 20.4678 229.249Z" fill="#EF8C3A"/>
<path opacity="0.6" d="M33.1504 144.594C36.2591 144.594 38.7793 142.061 38.7793 138.936C38.7793 135.812 36.2591 133.279 33.1504 133.279C30.0416 133.279 27.5215 135.812 27.5215 138.936C27.5215 142.061 30.0416 144.594 33.1504 144.594Z" fill="#EF8C3A"/>
<path opacity="0.6" d="M58.2427 257.74C61.3514 257.74 63.8716 255.207 63.8716 252.083C63.8716 248.958 61.3514 246.426 58.2427 246.426C55.1339 246.426 52.6138 248.958 52.6138 252.083C52.6138 255.207 55.1339 257.74 58.2427 257.74Z" fill="#EF8C3A"/>
<path d="M78.3168 151.341C87.0063 151.341 94.0505 144.261 94.0505 135.528C94.0505 126.794 87.0063 119.715 78.3168 119.715C69.6272 119.715 62.583 126.794 62.583 135.528C62.583 144.261 69.6272 151.341 78.3168 151.341Z" fill="#FF9F48"/>
<path d="M78.3159 119.715C78.1802 119.715 78.1124 119.715 77.9768 119.715C82.5206 122.509 85.5724 127.553 85.5724 133.279C85.5724 141.867 78.7228 148.887 70.1777 149.092C72.5514 150.523 75.3319 151.341 78.3159 151.341C86.9966 151.341 94.0496 144.252 94.0496 135.528C94.0496 126.803 86.9966 119.715 78.3159 119.715Z" fill="#EF8C3A"/>
<path d="M78.3168 151.341C87.0063 151.341 94.0505 144.261 94.0505 135.528C94.0505 126.794 87.0063 119.715 78.3168 119.715C69.6272 119.715 62.583 126.794 62.583 135.528C62.583 144.261 69.6272 151.341 78.3168 151.341Z" stroke="#00233A" stroke-width="10" stroke-miterlimit="10" stroke-linecap="round" stroke-linejoin="round"/>
<path d="M266.851 356.846C266.851 338.988 281.228 324.606 298.928 324.606C316.629 324.606 331.006 338.988 331.006 356.846H266.851Z" fill="#FF6550"/>
<path opacity="0.4" d="M298.928 324.606C295.605 324.606 292.485 325.083 289.434 326.038C302.522 330.059 312.017 342.328 312.017 356.846H330.938C331.006 338.988 316.629 324.606 298.928 324.606Z" fill="#FF7364"/>
<path d="M266.851 356.846C266.851 338.988 281.228 324.606 298.928 324.606C316.629 324.606 331.006 338.988 331.006 356.846H266.851Z" stroke="#00233A" stroke-width="10" stroke-miterlimit="10" stroke-linecap="round" stroke-linejoin="round"/>
<path d="M315.272 356.847C315.272 344.987 324.766 335.512 336.499 335.512C348.231 335.512 357.726 345.055 357.726 356.847H315.272Z" fill="#F8C569"/>
<path opacity="0.53" d="M336.499 335.512C334.804 335.512 333.176 335.717 331.616 336.057C340.975 338.239 348.028 346.691 348.028 356.847H357.794C357.794 344.987 348.232 335.512 336.499 335.512Z" fill="#D89535"/>
<path d="M315.272 356.847C315.272 344.987 324.766 335.512 336.499 335.512C348.231 335.512 357.726 345.055 357.726 356.847H315.272Z" stroke="#00233A" stroke-width="10" stroke-miterlimit="10" stroke-linecap="round" stroke-linejoin="round"/>
<path d="M364.576 356.846C364.576 348.19 371.494 341.306 380.039 341.306C388.584 341.306 395.501 348.258 395.501 356.846H364.576Z" fill="#F8C569"/>
<path d="M364.576 356.846C364.576 348.19 371.494 341.306 380.039 341.306C388.584 341.306 395.501 348.258 395.501 356.846H364.576Z" stroke="#00233A" stroke-width="10" stroke-miterlimit="10" stroke-linecap="round" stroke-linejoin="round"/>
<path d="M63.6685 388.201C63.6685 379.612 70.5859 372.66 79.1309 372.66C87.676 372.66 94.5934 379.612 94.5934 388.201H63.6685Z" fill="#F8C569"/>
<path d="M63.6685 388.201C63.6685 379.612 70.5859 372.66 79.1309 372.66C87.676 372.66 94.5934 379.612 94.5934 388.201H63.6685Z" stroke="#00233A" stroke-width="10" stroke-miterlimit="10" stroke-linecap="round" stroke-linejoin="round"/>
<path d="M141.794 388.2C141.794 382.679 146.203 378.249 151.696 378.249C157.189 378.249 161.597 382.679 161.597 388.2H141.794Z" fill="#00233A"/>
<path d="M124.433 387.314C124.433 382.747 128.095 379.066 132.639 379.066C137.182 379.066 140.845 382.747 140.845 387.314H124.433Z" fill="#00233A"/>
<path d="M141.794 388.2C141.794 382.679 146.203 378.249 151.696 378.249C157.189 378.249 161.597 382.679 161.597 388.2H141.794Z" stroke="#00233A" stroke-width="10" stroke-miterlimit="10" stroke-linecap="round" stroke-linejoin="round"/>
<path d="M166.819 388.201C166.819 379.612 173.737 372.66 182.282 372.66C190.827 372.66 197.744 379.612 197.744 388.201H166.819Z" fill="#00233A"/>
<path d="M224.532 356.369C224.532 350.439 229.279 345.668 235.179 345.668C241.079 345.668 245.827 350.439 245.827 356.369H224.532Z" fill="#00233A"/>
<path d="M196.727 356.369C196.727 348.598 203.034 342.26 210.765 342.26C218.497 342.26 224.804 348.598 224.804 356.369H196.727Z" fill="#00233A"/>
<path d="M166.819 388.201C166.819 379.612 173.737 372.66 182.282 372.66C190.827 372.66 197.744 379.612 197.744 388.201H166.819Z" stroke="#00233A" stroke-width="10" stroke-miterlimit="10" stroke-linecap="round" stroke-linejoin="round"/>
<path d="M188.318 356.846H422.764" stroke="#00233A" stroke-width="10" stroke-miterlimit="10" stroke-linecap="round" stroke-linejoin="round"/>
<path d="M238.79 387.967H255.744" stroke="#00233A" stroke-width="10" stroke-miterlimit="10" stroke-linecap="round" stroke-linejoin="round"/>
<path d="M-20.6299 388.2H223.515" stroke="#00233A" stroke-width="10" stroke-miterlimit="10" stroke-linecap="round" stroke-linejoin="round"/>
<path d="M321.914 380.983H326.051" stroke="#00233A" stroke-width="10" stroke-miterlimit="10" stroke-linecap="round" stroke-linejoin="round"/>
<path d="M340.229 380.566H355.759" stroke="#00233A" stroke-width="10" stroke-miterlimit="10" stroke-linecap="round" stroke-linejoin="round"/>
<path d="M237.635 88.8105H245.434" stroke="#00233A" stroke-width="10" stroke-miterlimit="10" stroke-linecap="round" stroke-linejoin="round"/>
<path d="M268.817 88.3606H293.571" stroke="#00233A" stroke-width="10" stroke-miterlimit="10" stroke-linecap="round" stroke-linejoin="round"/>
<path d="M273.022 113.308H314.12" stroke="#00233A" stroke-width="10" stroke-miterlimit="10" stroke-linecap="round" stroke-linejoin="round"/>
<path d="M176.449 156.18C176.381 155.635 176.313 155.022 176.313 154.408C176.313 148.342 181.196 143.366 187.3 143.366C193.336 143.366 198.287 148.274 198.287 154.408C198.287 160.475 193.404 165.45 187.3 165.45" stroke="#00233A" stroke-width="10" stroke-miterlimit="10" stroke-linecap="round" stroke-linejoin="round"/>
<path d="M140.37 165.382H187.3" stroke="#00233A" stroke-width="10" stroke-miterlimit="10" stroke-linecap="round" stroke-linejoin="round"/>
<path d="M392.246 112.967H432.258" stroke="#00233A" stroke-width="10" stroke-miterlimit="10" stroke-linecap="round" stroke-linejoin="round"/>
<path d="M205.136 194.692C205.068 195.237 205 195.85 205 196.464C205 202.53 209.883 207.506 215.987 207.506C222.091 207.506 226.973 202.598 226.973 196.464C226.973 190.329 222.091 185.422 215.987 185.422" stroke="#00233A" stroke-width="10" stroke-miterlimit="10" stroke-linecap="round" stroke-linejoin="round"/>
<path d="M174.144 185.49H215.919" stroke="#00233A" stroke-width="10" stroke-miterlimit="10" stroke-linecap="round" stroke-linejoin="round"/>
<path d="M158 185H162.951" stroke="#00233A" stroke-width="10" stroke-miterlimit="10" stroke-linecap="round" stroke-linejoin="round"/>
<path d="M122.669 185.49H146.88" stroke="#00233A" stroke-width="10" stroke-miterlimit="10" stroke-linecap="round" stroke-linejoin="round"/>
<path d="M150.203 151.75H106.732" stroke="#00233A" stroke-width="10" stroke-miterlimit="10" stroke-linecap="round" stroke-linejoin="round"/>
<path d="M14.8387 388.2C27.6857 388.2 38.1003 371.081 38.1003 349.962C38.1003 328.844 27.6857 311.724 14.8387 311.724C1.9917 311.724 -8.42285 328.844 -8.42285 349.962C-8.42285 371.081 1.9917 388.2 14.8387 388.2Z" fill="#E97E1C"/>
<path opacity="0.74" d="M14.8387 311.724C14.2962 311.724 13.7536 311.792 13.2789 311.792C22.3665 316.972 28.877 331.218 28.877 347.849C28.877 368.093 19.3147 384.656 7.17529 385.951C9.54892 387.314 12.1938 388.064 14.8387 388.064C27.6563 388.064 38.1003 370.956 38.1003 349.826C38.1003 328.832 27.6563 311.724 14.8387 311.724Z" fill="#E8531F"/>
<path d="M14.8387 388.2C27.6857 388.2 38.1003 371.081 38.1003 349.962C38.1003 328.844 27.6857 311.724 14.8387 311.724C1.9917 311.724 -8.42285 328.844 -8.42285 349.962C-8.42285 371.081 1.9917 388.2 14.8387 388.2Z" stroke="#00233A" stroke-width="10" stroke-miterlimit="10" stroke-linecap="round" stroke-linejoin="round"/>
<path d="M17.2798 388.2C17.2798 375.25 27.6559 364.821 40.5413 364.821C53.4267 364.821 63.8029 375.25 63.8029 388.2H17.2798Z" fill="#FF6550"/>
<path opacity="0.4" d="M40.4739 364.821C38.4394 364.821 36.5405 365.094 34.6416 365.571C44.6787 368.161 52.0708 377.295 52.0708 388.2H63.7355C63.7355 375.25 53.2915 364.821 40.4739 364.821Z" fill="#FF7364"/>
<path d="M17.2798 388.2C17.2798 375.25 27.6559 364.821 40.5413 364.821C53.4267 364.821 63.8029 375.25 63.8029 388.2H17.2798Z" stroke="#00233A" stroke-width="10" stroke-miterlimit="10" stroke-linecap="round" stroke-linejoin="round"/>
<path opacity="0.91" d="M367.018 127.757C369.977 127.757 372.375 125.346 372.375 122.372C372.375 119.399 369.977 116.988 367.018 116.988C364.059 116.988 361.66 119.399 361.66 122.372C361.66 125.346 364.059 127.757 367.018 127.757Z" fill="#FF6550"/>
<path opacity="0.91" d="M355.828 154.136C359.648 154.136 362.745 151.024 362.745 147.184C362.745 143.344 359.648 140.231 355.828 140.231C352.007 140.231 348.91 143.344 348.91 147.184C348.91 151.024 352.007 154.136 355.828 154.136Z" fill="#FF6550"/>
<path opacity="0.91" d="M392.246 209.755C396.066 209.755 399.163 206.642 399.163 202.803C399.163 198.963 396.066 195.85 392.246 195.85C388.425 195.85 385.328 198.963 385.328 202.803C385.328 206.642 388.425 209.755 392.246 209.755Z" fill="#FF6550"/>
<path opacity="0.4" d="M395.501 172.063C399.321 172.063 402.418 168.95 402.418 165.11C402.418 161.27 399.321 158.158 395.501 158.158C391.681 158.158 388.583 161.27 388.583 165.11C388.583 168.95 391.681 172.063 395.501 172.063Z" fill="#FF7364"/>
<path opacity="0.38" d="M12.8042 346.486C15.9129 346.486 18.4331 343.953 18.4331 340.829C18.4331 337.704 15.9129 335.171 12.8042 335.171C9.69543 335.171 7.17529 337.704 7.17529 340.829C7.17529 343.953 9.69543 346.486 12.8042 346.486Z" fill="#F8C569"/>
<path opacity="0.6" d="M4.59799 353.916C6.43327 353.916 7.92106 352.42 7.92106 350.576C7.92106 348.731 6.43327 347.236 4.59799 347.236C2.7627 347.236 1.2749 348.731 1.2749 350.576C1.2749 352.42 2.7627 353.916 4.59799 353.916Z" fill="#E8531F"/>
<path opacity="0.38" d="M18.4334 363.594C20.6058 363.594 22.3669 361.824 22.3669 359.641C22.3669 357.457 20.6058 355.687 18.4334 355.687C16.2611 355.687 14.5 357.457 14.5 359.641C14.5 361.824 16.2611 363.594 18.4334 363.594Z" fill="#F8C569"/>
</svg>
