<svg width="390" height="377" viewBox="0 0 390 377" fill="none" xmlns="http://www.w3.org/2000/svg">
<path d="M-11.5642 324.231C-15.9968 320.63 -18.7671 315.144 -18.7671 308.994C-18.7671 298.19 -10.0128 289.38 0.846861 289.38C11.7066 289.38 20.4054 298.19 20.4054 309.05C20.4054 315.2 17.5797 320.685 13.2025 324.287L-11.5642 324.231Z" fill="#72B579"/>
<path d="M-11.5642 324.231C-15.9968 320.63 -18.7671 315.144 -18.7671 308.994C-18.7671 298.19 -10.0128 289.38 0.84686 289.38C11.7066 289.38 20.4054 298.19 20.4054 309.05C20.4054 315.2 17.5797 320.685 13.2025 324.287L-11.5642 324.231Z" stroke="#464950" stroke-width="5.0808" stroke-miterlimit="10" stroke-linecap="round" stroke-linejoin="round"/>
<path d="M257.159 324.01C263.676 324.01 268.96 313.269 268.96 300.019C268.96 286.769 263.676 276.028 257.159 276.028C250.641 276.028 245.357 286.769 245.357 300.019C245.357 313.269 250.641 324.01 257.159 324.01Z" fill="#AECC75"/>
<path opacity="0.51" d="M250.288 300.019C250.288 288.494 254.277 278.909 259.596 276.582C258.765 276.249 257.934 276.028 257.103 276.028C250.565 276.028 245.301 286.776 245.301 300.019C245.301 313.261 250.565 324.01 257.103 324.01C257.934 324.01 258.765 323.844 259.596 323.456C254.277 321.129 250.288 311.543 250.288 300.019Z" fill="#464950"/>
<path d="M257.159 324.01C263.676 324.01 268.96 313.269 268.96 300.019C268.96 286.769 263.676 276.028 257.159 276.028C250.641 276.028 245.357 286.769 245.357 300.019C245.357 313.269 250.641 324.01 257.159 324.01Z" stroke="#464950" stroke-width="5.0808" stroke-miterlimit="10" stroke-linecap="round" stroke-linejoin="round"/>
<path d="M68.7759 232.256L67.3353 169.647H9.15833L7.71776 232.256L5.6123 324.232H70.8813L68.7759 232.256Z" fill="#F03A47"/>
<path d="M42.8452 250.983H68.9417" stroke="#DD2A40" stroke-width="3.04848" stroke-miterlimit="10"/>
<path opacity="0.85" d="M25.3921 259.572H42.1249" stroke="#464950" stroke-width="3.04848" stroke-miterlimit="10" stroke-linejoin="round"/>
<path opacity="0.85" d="M61.5176 266.608H69.884" stroke="#464950" stroke-width="3.04848" stroke-miterlimit="10" stroke-linejoin="round"/>
<path opacity="0.85" d="M53.1504 294.312H60.6857" stroke="#464950" stroke-width="3.04848" stroke-miterlimit="10" stroke-linejoin="round"/>
<path d="M60.686 284.449H68.9416" stroke="#DD2A40" stroke-width="3.04848" stroke-miterlimit="10"/>
<path d="M59.0244 306.224H63.9556" stroke="#DD2A40" stroke-width="3.04848" stroke-miterlimit="10"/>
<path d="M23.5642 239.459H68.9423L68.776 232.256H22.5669L23.5642 239.459Z" fill="#DD2A40"/>
<path d="M5.6123 324.232H24.2843L26.9993 174.634L67.4461 174.523L67.3353 169.647H9.15833L7.71776 232.256L5.6123 324.232Z" fill="#DD2A40"/>
<path d="M127.673 206.603C152.948 206.603 173.439 186.113 173.439 160.837C173.439 135.561 152.948 115.071 127.673 115.071C102.397 115.071 81.9067 135.561 81.9067 160.837C81.9067 186.113 102.397 206.603 127.673 206.603Z" fill="#50B893"/>
<path opacity="0.55" d="M90.3293 160.837C90.3293 136.957 108.613 117.343 131.94 115.237C130.555 115.127 129.169 115.016 127.729 115.016C102.463 115.016 81.9629 135.516 81.9629 160.782C81.9629 186.047 102.463 206.548 127.729 206.548C129.169 206.548 130.555 206.492 131.94 206.326C108.558 204.331 90.3293 184.717 90.3293 160.837Z" fill="#464950"/>
<path d="M127.673 160.837V172.805V195.965" stroke="#464950" stroke-width="5.0808" stroke-miterlimit="10" stroke-linecap="round" stroke-linejoin="round"/>
<path d="M144.516 168.151L127.673 178.401" stroke="#464950" stroke-width="5.0808" stroke-miterlimit="10" stroke-linecap="round" stroke-linejoin="round"/>
<path d="M127.673 186.435L113.489 175.187" stroke="#464950" stroke-width="5.0808" stroke-miterlimit="10" stroke-linecap="round" stroke-linejoin="round"/>
<path d="M127.673 206.603C152.948 206.603 173.439 186.113 173.439 160.837C173.439 135.561 152.948 115.071 127.673 115.071C102.397 115.071 81.9067 135.561 81.9067 160.837C81.9067 186.113 102.397 206.603 127.673 206.603Z" stroke="#464950" stroke-width="5.0808" stroke-miterlimit="10" stroke-linecap="round" stroke-linejoin="round"/>
<path d="M96.8669 224.222C107.577 224.222 116.259 215.539 116.259 204.829C116.259 194.119 107.577 185.437 96.8669 185.437C86.1568 185.437 77.4746 194.119 77.4746 204.829C77.4746 215.539 86.1568 224.222 96.8669 224.222Z" fill="#429977"/>
<path opacity="0.31" d="M84.6213 204.829C84.6213 195.355 91.4364 187.432 100.468 185.769C99.3041 185.548 98.1406 185.437 96.9216 185.437C86.2281 185.437 77.5293 194.136 77.5293 204.829C77.5293 215.523 86.2281 224.222 96.9216 224.222C98.1406 224.222 99.3041 224.111 100.468 223.889C91.4364 222.227 84.6213 214.304 84.6213 204.829Z" fill="#464950"/>
<path d="M101.3 209.595L117.368 220.233" stroke="#464950" stroke-width="5.0808" stroke-miterlimit="10" stroke-linecap="round" stroke-linejoin="round"/>
<path d="M96.8669 224.222C107.577 224.222 116.259 215.539 116.259 204.829C116.259 194.119 107.577 185.437 96.8669 185.437C86.1568 185.437 77.4746 194.119 77.4746 204.829C77.4746 215.539 86.1568 224.222 96.8669 224.222Z" stroke="#464950" stroke-width="5.0808" stroke-miterlimit="10" stroke-linecap="round" stroke-linejoin="round"/>
<path d="M68.7759 232.256L67.3353 169.647H9.15833L7.71776 232.256L5.6123 324.232H70.8813L68.7759 232.256Z" stroke="#464950" stroke-width="5.0808" stroke-miterlimit="10" stroke-linecap="round" stroke-linejoin="round"/>
<path d="M77.4753 232.81H-0.980469L8.16163 218.959H68.3332L77.4753 232.81Z" fill="#5A646D"/>
<path d="M77.4753 232.81H-0.980469L8.16163 218.959H68.3332L77.4753 232.81Z" stroke="#464950" stroke-width="5.0808" stroke-miterlimit="10" stroke-linecap="round" stroke-linejoin="round"/>
<path d="M32.9835 205.107H19.1318V189.87C19.1318 186.047 22.2346 182.944 26.0577 182.944C29.8807 182.944 32.9835 186.047 32.9835 189.87V205.107Z" fill="#F4FFC5"/>
<path d="M57.3628 205.107H42.957V189.87C42.957 186.047 46.0598 182.944 49.8829 182.944H50.4369C54.26 182.944 57.3628 186.047 57.3628 189.87V205.107Z" fill="#F4FFC5"/>
<path d="M26.0577 182.944C22.2346 182.944 19.1318 186.047 19.1318 189.87V195.965C19.1318 192.142 22.2346 189.039 26.0577 189.039C29.8807 189.039 32.9835 192.142 32.9835 195.965V189.87C32.9835 186.047 29.8807 182.944 26.0577 182.944Z" fill="#B7C391"/>
<path d="M50.4369 182.944H49.8829C46.0598 182.944 42.957 186.047 42.957 189.87V195.965C42.957 192.142 46.0598 189.039 49.8829 189.039H50.4369C54.26 189.039 57.3628 192.142 57.3628 195.965V189.87C57.3628 186.047 54.26 182.944 50.4369 182.944Z" fill="#B7C391"/>
<path d="M32.9835 205.107H19.1318V189.87C19.1318 186.047 22.2346 182.944 26.0577 182.944C29.8807 182.944 32.9835 186.047 32.9835 189.87V205.107Z" stroke="#464950" stroke-width="5.0808" stroke-miterlimit="10" stroke-linecap="round" stroke-linejoin="round"/>
<path d="M57.3628 205.107H42.957V189.87C42.957 186.047 46.0598 182.944 49.8829 182.944H50.4369C54.26 182.944 57.3628 186.047 57.3628 189.87V205.107Z" stroke="#464950" stroke-width="5.0808" stroke-miterlimit="10" stroke-linecap="round" stroke-linejoin="round"/>
<path d="M74.2611 169.647H2.23242L38.2467 134.519L74.2611 169.647Z" fill="#5A646D"/>
<path d="M38.2467 134.519L27.7749 169.647H2.23242L38.2467 134.519Z" fill="#4C555C"/>
<path d="M74.2611 169.647H2.23242L38.2467 134.519L74.2611 169.647Z" stroke="#464950" stroke-width="5.0808" stroke-miterlimit="10" stroke-linecap="round" stroke-linejoin="round"/>
<path d="M53.9825 268.271H22.5669V324.231H53.9825V268.271Z" fill="#F4FFC5"/>
<path d="M53.9825 268.271H22.5669V275.363H53.9825V268.271Z" fill="#B7C391"/>
<path d="M27.609 268.271H23.1211V324.231H27.609V268.271Z" fill="#B7C391"/>
<path d="M53.9825 268.271H22.5669V324.231H53.9825V268.271Z" stroke="#464950" stroke-width="5.0808" stroke-miterlimit="10" stroke-linecap="round" stroke-linejoin="round"/>
<path d="M28.2178 274.365L48.275 318.136" stroke="#464950" stroke-width="4.06464" stroke-miterlimit="10" stroke-linecap="round" stroke-linejoin="round"/>
<path d="M48.275 274.365L28.2178 318.136" stroke="#464950" stroke-width="4.06464" stroke-miterlimit="10" stroke-linecap="round" stroke-linejoin="round"/>
<path d="M221.754 194.802L171.722 169.647L121.689 194.802L105.4 223.391V323.013H238.043V223.391L221.754 194.802Z" fill="#F03A47"/>
<path d="M221.754 194.802L171.722 169.647L121.689 194.802L105.4 223.391V323.013H238.043V223.391L221.754 194.802Z" fill="#F03A47"/>
<path opacity="0.92" d="M111.051 247.438H105.4V323.677H111.051V247.438Z" fill="#DD2A40"/>
<path opacity="0.92" d="M173.384 169.647L123.352 194.802L107.062 223.391V252.425L133.713 208.487L173.384 188.541L213.055 208.487L239.706 252.425V223.391L223.416 194.802L173.384 169.647Z" fill="#DD2A40"/>
<g opacity="0.4">
<g opacity="0.4">
<path opacity="0.4" d="M133.324 192.917H210.118" stroke="#464950" stroke-width="1.52424" stroke-miterlimit="10" stroke-linecap="round" stroke-linejoin="round"/>
</g>
<g opacity="0.4">
<path opacity="0.4" d="M122.078 202.89H221.366" stroke="#464950" stroke-width="1.52424" stroke-miterlimit="10" stroke-linecap="round" stroke-linejoin="round"/>
</g>
<g opacity="0.4">
<path opacity="0.4" d="M115.815 212.864H227.626" stroke="#464950" stroke-width="1.52424" stroke-miterlimit="10" stroke-linecap="round" stroke-linejoin="round"/>
</g>
<g opacity="0.4">
<path opacity="0.4" d="M109.554 222.837H233.886" stroke="#464950" stroke-width="1.52424" stroke-miterlimit="10" stroke-linecap="round" stroke-linejoin="round"/>
</g>
<g opacity="0.4">
<path opacity="0.4" d="M105.399 232.81H238.043" stroke="#464950" stroke-width="1.52424" stroke-miterlimit="10" stroke-linecap="round" stroke-linejoin="round"/>
</g>
<g opacity="0.4">
<path opacity="0.4" d="M105.399 242.783H238.043" stroke="#464950" stroke-width="1.52424" stroke-miterlimit="10" stroke-linecap="round" stroke-linejoin="round"/>
</g>
<g opacity="0.4">
<path opacity="0.4" d="M105.399 252.757H238.043" stroke="#464950" stroke-width="1.52424" stroke-miterlimit="10" stroke-linecap="round" stroke-linejoin="round"/>
</g>
<g opacity="0.4">
<path opacity="0.4" d="M105.399 262.729H238.043" stroke="#464950" stroke-width="1.52424" stroke-miterlimit="10" stroke-linecap="round" stroke-linejoin="round"/>
</g>
<g opacity="0.4">
<path opacity="0.4" d="M105.399 272.703H238.043" stroke="#464950" stroke-width="1.52424" stroke-miterlimit="10" stroke-linecap="round" stroke-linejoin="round"/>
</g>
<g opacity="0.4">
<path opacity="0.4" d="M105.399 282.676H238.043" stroke="#464950" stroke-width="1.52424" stroke-miterlimit="10" stroke-linecap="round" stroke-linejoin="round"/>
</g>
<g opacity="0.4">
<path opacity="0.4" d="M105.399 292.649H238.043" stroke="#464950" stroke-width="1.52424" stroke-miterlimit="10" stroke-linecap="round" stroke-linejoin="round"/>
</g>
<g opacity="0.4">
<path opacity="0.4" d="M105.399 302.623H238.043" stroke="#464950" stroke-width="1.52424" stroke-miterlimit="10" stroke-linecap="round" stroke-linejoin="round"/>
</g>
<g opacity="0.4">
<path opacity="0.4" d="M105.399 312.596H238.043" stroke="#464950" stroke-width="1.52424" stroke-miterlimit="10" stroke-linecap="round" stroke-linejoin="round"/>
</g>
</g>
<path d="M238.043 247.438H105.4V252.867H238.043V247.438Z" fill="#DD2A40"/>
<g opacity="0.97">
<g opacity="0.97">
<path opacity="0.97" d="M133.324 194.579H210.118" stroke="#464950" stroke-width="1.52424" stroke-miterlimit="10" stroke-linecap="round" stroke-linejoin="round"/>
</g>
<g opacity="0.97">
<path opacity="0.97" d="M122.078 204.552H221.366" stroke="#464950" stroke-width="1.52424" stroke-miterlimit="10" stroke-linecap="round" stroke-linejoin="round"/>
</g>
<g opacity="0.97">
<path opacity="0.97" d="M115.815 214.525H227.626" stroke="#464950" stroke-width="1.52424" stroke-miterlimit="10" stroke-linecap="round" stroke-linejoin="round"/>
</g>
<g opacity="0.97">
<path opacity="0.97" d="M109.554 224.499H233.886" stroke="#464950" stroke-width="1.52424" stroke-miterlimit="10" stroke-linecap="round" stroke-linejoin="round"/>
</g>
<g opacity="0.97">
<path opacity="0.97" d="M105.399 234.472H238.043" stroke="#464950" stroke-width="1.52424" stroke-miterlimit="10" stroke-linecap="round" stroke-linejoin="round"/>
</g>
<g opacity="0.97">
<path opacity="0.97" d="M105.399 244.445H238.043" stroke="#464950" stroke-width="1.52424" stroke-miterlimit="10" stroke-linecap="round" stroke-linejoin="round"/>
</g>
<g opacity="0.97">
<path opacity="0.97" d="M105.399 254.418H238.043" stroke="#464950" stroke-width="1.52424" stroke-miterlimit="10" stroke-linecap="round" stroke-linejoin="round"/>
</g>
<g opacity="0.97">
<path opacity="0.97" d="M105.399 264.392H238.043" stroke="#464950" stroke-width="1.52424" stroke-miterlimit="10" stroke-linecap="round" stroke-linejoin="round"/>
</g>
<g opacity="0.97">
<path opacity="0.97" d="M105.399 274.365H238.043" stroke="#464950" stroke-width="1.52424" stroke-miterlimit="10" stroke-linecap="round" stroke-linejoin="round"/>
</g>
<g opacity="0.97">
<path opacity="0.97" d="M105.399 284.338H238.043" stroke="#464950" stroke-width="1.52424" stroke-miterlimit="10" stroke-linecap="round" stroke-linejoin="round"/>
</g>
<g opacity="0.97">
<path opacity="0.97" d="M105.399 294.311H238.043" stroke="#464950" stroke-width="1.52424" stroke-miterlimit="10" stroke-linecap="round" stroke-linejoin="round"/>
</g>
<g opacity="0.97">
<path opacity="0.97" d="M105.399 304.284H238.043" stroke="#464950" stroke-width="1.52424" stroke-miterlimit="10" stroke-linecap="round" stroke-linejoin="round"/>
</g>
<g opacity="0.97">
<path opacity="0.97" d="M105.399 314.258H238.043" stroke="#464950" stroke-width="1.52424" stroke-miterlimit="10" stroke-linecap="round" stroke-linejoin="round"/>
</g>
</g>
<path d="M221.754 194.802L171.722 169.647L121.689 194.802L105.4 223.391V323.013H238.043V223.391L221.754 194.802Z" stroke="#464950" stroke-width="5.0808" stroke-miterlimit="10" stroke-linecap="round" stroke-linejoin="round"/>
<path d="M171.722 270.764H133.325V323.012H171.722V270.764Z" fill="#F4FFC5"/>
<path d="M171.722 270.764H133.325V323.012H171.722V270.764Z" fill="#F4FFC5"/>
<path d="M171.722 270.764H133.325V278.244H171.722V270.764Z" fill="#B7C391"/>
<path d="M138.422 270.764H133.325V322.403H138.422V270.764Z" fill="#B7C391"/>
<path d="M210.118 270.764H171.721V323.012H210.118V270.764Z" fill="#F4FFC5"/>
<path d="M210.118 270.764H171.721V278.244H210.118V270.764Z" fill="#B7C391"/>
<path d="M176.819 270.764H171.721V322.403H176.819V270.764Z" fill="#B7C391"/>
<path d="M171.722 270.764H133.325V323.012H171.722V270.764Z" stroke="#464950" stroke-width="5.0808" stroke-miterlimit="10" stroke-linecap="round" stroke-linejoin="round"/>
<path d="M210.118 270.764H171.721V323.012H210.118V270.764Z" stroke="#464950" stroke-width="5.0808" stroke-miterlimit="10" stroke-linecap="round" stroke-linejoin="round"/>
<path d="M188.344 202.891H155.1V236.135H188.344V202.891Z" fill="#F4FFC5"/>
<path d="M188.344 202.891H155.1V236.135H188.344V202.891Z" fill="#F4FFC5"/>
<path d="M188.344 202.891H155.1V208.709H188.344V202.891Z" fill="#B7C391"/>
<path d="M188.344 219.79H155.1V224.223H188.344V219.79Z" fill="#B7C391"/>
<path d="M188.344 202.891H155.1V236.135H188.344V202.891Z" stroke="#464950" stroke-width="5.0808" stroke-miterlimit="10" stroke-linecap="round" stroke-linejoin="round"/>
<path d="M248.349 241.399L240.647 245.776L215.382 201.506L171.722 179.565L128.061 201.506L102.796 245.776L95.0942 241.399L121.689 194.802L171.722 169.647L221.754 194.802L248.349 241.399Z" fill="#A58167"/>
<path d="M248.349 241.399L240.647 245.776L215.382 201.506L171.722 179.565L128.061 201.506L102.796 245.776L95.0942 241.399L121.689 194.802L171.722 169.647L221.754 194.802L248.349 241.399Z" stroke="#464950" stroke-width="5.0808" stroke-miterlimit="10" stroke-linecap="round" stroke-linejoin="round"/>
<path d="M320.488 281.789C334.686 281.789 346.197 260.977 346.197 235.303C346.197 209.63 334.686 188.817 320.488 188.817C306.289 188.817 294.779 209.63 294.779 235.303C294.779 260.977 306.289 281.789 320.488 281.789Z" fill="#AECC75"/>
<path opacity="0.51" d="M301.65 235.857C301.65 211.589 311.956 191.698 325.032 189.593C323.536 189.094 322.04 188.817 320.433 188.817C306.249 188.817 294.725 209.65 294.725 235.303C294.725 260.957 306.249 281.789 320.433 281.789C321.209 281.789 321.985 281.734 322.76 281.568C310.793 277.689 301.65 258.685 301.65 235.857Z" fill="#464950"/>
<path d="M320.488 281.789C334.686 281.789 346.197 260.977 346.197 235.303C346.197 209.63 334.686 188.817 320.488 188.817C306.289 188.817 294.779 209.63 294.779 235.303C294.779 260.977 306.289 281.789 320.488 281.789Z" stroke="#464950" stroke-width="5.0808" stroke-miterlimit="10" stroke-linecap="round" stroke-linejoin="round"/>
<path d="M320.488 225.995V267.717V323.012" stroke="#464950" stroke-width="5.0808" stroke-miterlimit="10" stroke-linecap="round" stroke-linejoin="round"/>
<path d="M407.809 193.195C412.961 211.202 413.017 228.045 406.977 241.232C401.16 254.308 389.303 263.783 375.229 263.672C361.101 263.783 349.244 254.308 343.481 241.232C337.498 227.99 337.498 211.146 342.65 193.195C354.563 157.236 363.262 126.984 375.229 126.984C387.197 126.928 395.896 157.236 407.809 193.195Z" fill="#72B579"/>
<path opacity="0.51" d="M362.874 240.623C365.352 240.623 367.362 238.614 367.362 236.135C367.362 233.656 365.352 231.647 362.874 231.647C360.395 231.647 358.386 233.656 358.386 236.135C358.386 238.614 360.395 240.623 362.874 240.623Z" fill="#464950"/>
<path opacity="0.38" d="M352.07 241.121C345.754 227.269 345.809 209.539 351.239 190.646C360.547 162.277 367.916 134.463 376.061 129.698C375.729 129.643 375.562 126.873 375.23 126.873C363.262 126.873 354.563 157.18 342.651 193.083C337.498 211.091 337.443 227.934 343.482 241.121C349.3 254.197 361.157 263.672 375.23 263.561C375.839 263.561 376.393 263.561 377.003 263.505C365.977 260.735 356.946 252.147 352.07 241.121Z" fill="#464950"/>
<path d="M407.809 193.195C412.961 211.202 413.017 228.045 406.977 241.232C401.16 254.308 389.303 263.783 375.229 263.672C361.101 263.783 349.244 254.308 343.481 241.232C337.498 227.99 337.498 211.146 342.65 193.195C354.563 157.236 363.262 126.984 375.229 126.984C387.197 126.928 395.896 157.236 407.809 193.195Z" stroke="#464950" stroke-width="5.0808" stroke-miterlimit="10" stroke-linecap="round" stroke-linejoin="round"/>
<path d="M67.1138 323.013C67.1138 314.868 73.7072 308.274 81.8519 308.274C89.9967 308.274 96.5901 314.868 96.5901 323.013H67.1138Z" fill="#AECC75"/>
<path d="M67.1138 323.013C67.1138 314.868 73.7072 308.274 81.8519 308.274C89.9967 308.274 96.5901 314.868 96.5901 323.013H67.1138Z" stroke="#464950" stroke-width="5.0808" stroke-miterlimit="10" stroke-linecap="round" stroke-linejoin="round"/>
<path d="M222.252 245.776H239.151" stroke="#464950" stroke-width="5.0808" stroke-miterlimit="10" stroke-linecap="round" stroke-linejoin="round"/>
<path d="M207.126 245.776H213.775" stroke="#464950" stroke-width="5.0808" stroke-miterlimit="10" stroke-linecap="round" stroke-linejoin="round"/>
<path d="M102.795 245.776H199.757" stroke="#464950" stroke-width="5.0808" stroke-miterlimit="10" stroke-linecap="round" stroke-linejoin="round"/>
<path d="M171.721 203.445V237.076" stroke="#464950" stroke-width="3.04848" stroke-miterlimit="10" stroke-linecap="round" stroke-linejoin="round"/>
<path d="M187.235 219.513H156.207" stroke="#464950" stroke-width="3.04848" stroke-miterlimit="10" stroke-linecap="round" stroke-linejoin="round"/>
<path d="M140.14 278.244L164.907 315.532" stroke="#464950" stroke-width="4.06464" stroke-miterlimit="10" stroke-linecap="round" stroke-linejoin="round"/>
<path d="M164.907 278.244L140.14 315.532" stroke="#464950" stroke-width="4.06464" stroke-miterlimit="10" stroke-linecap="round" stroke-linejoin="round"/>
<path d="M178.536 278.244L203.303 315.532" stroke="#464950" stroke-width="4.06464" stroke-miterlimit="10" stroke-linecap="round" stroke-linejoin="round"/>
<path d="M203.303 278.244L178.536 315.532" stroke="#464950" stroke-width="4.06464" stroke-miterlimit="10" stroke-linecap="round" stroke-linejoin="round"/>
<path d="M52.2646 373.986H129.335" stroke="#464950" stroke-width="5.0808" stroke-miterlimit="10" stroke-linecap="round" stroke-linejoin="round"/>
<path d="M32.041 373.986H40.075" stroke="#464950" stroke-width="5.0808" stroke-miterlimit="10" stroke-linecap="round" stroke-linejoin="round"/>
<path d="M129.336 358.971H62.626V362.85H129.336V358.971Z" stroke="#464950" stroke-width="3.55656" stroke-miterlimit="10" stroke-linecap="round" stroke-linejoin="round"/>
<path d="M129.336 346.117H62.626V349.995H129.336V346.117Z" stroke="#464950" stroke-width="3.55656" stroke-miterlimit="10" stroke-linecap="round" stroke-linejoin="round"/>
<path d="M102.02 373.986H91.4927V333.539L96.7563 327.666L102.02 333.539V373.986Z" fill="#A58167"/>
<path opacity="0.47" d="M96.4792 336.31L101.078 331.212L98.4184 328.22L93.1548 334.094V374.54H96.4792V336.31Z" fill="#A58167"/>
<path d="M102.02 373.986H91.4927V333.539L96.7563 327.666L102.02 333.539V373.986Z" stroke="#464950" stroke-width="5.0808" stroke-miterlimit="10" stroke-linecap="round" stroke-linejoin="round"/>
<path d="M123.241 373.986H112.714V333.539L117.977 327.666L123.241 333.539V373.986Z" fill="#A58167"/>
<path opacity="0.47" d="M117.7 336.31L122.243 331.212L119.639 328.22L114.375 334.094V374.54H117.7V336.31Z" fill="#A58167"/>
<path d="M123.241 373.986H112.714V333.539L117.977 327.666L123.241 333.539V373.986Z" stroke="#464950" stroke-width="5.0808" stroke-miterlimit="10" stroke-linecap="round" stroke-linejoin="round"/>
<path d="M80.5771 373.986H70.0498V333.539L75.3134 327.666L80.5771 333.539V373.986Z" fill="#A58167"/>
<path d="M80.5771 373.986H70.0498V333.539L75.3134 327.666L80.5771 333.539V373.986Z" fill="#A58167"/>
<path opacity="0.47" d="M75.0363 336.31L79.6351 331.212L76.9755 328.22L71.7119 334.094V374.54H75.0363V336.31Z" fill="#A58167"/>
<path d="M80.5771 373.986H70.0498V333.539L75.3134 327.666L80.5771 333.539V373.986Z" stroke="#464950" stroke-width="5.0808" stroke-miterlimit="10" stroke-linecap="round" stroke-linejoin="round"/>
<path opacity="0.76" d="M139.752 142.608C141.771 142.608 143.408 140.971 143.408 138.951C143.408 136.931 141.771 135.294 139.752 135.294C137.732 135.294 136.095 136.931 136.095 138.951C136.095 140.971 137.732 142.608 139.752 142.608Z" fill="#464950"/>
<path opacity="0.76" d="M116.315 141.334C120.079 141.334 123.13 138.282 123.13 134.519C123.13 130.755 120.079 127.704 116.315 127.704C112.551 127.704 109.5 130.755 109.5 134.519C109.5 138.282 112.551 141.334 116.315 141.334Z" fill="#464950"/>
<path opacity="0.76" d="M113.489 162.943C114.652 162.943 115.594 162 115.594 160.837C115.594 159.675 114.652 158.732 113.489 158.732C112.326 158.732 111.383 159.675 111.383 160.837C111.383 162 112.326 162.943 113.489 162.943Z" fill="#464950"/>
<path opacity="0.67" d="M99.5268 160.67C101.975 160.67 103.959 158.686 103.959 156.238C103.959 153.79 101.975 151.805 99.5268 151.805C97.0787 151.805 95.0942 153.79 95.0942 156.238C95.0942 158.686 97.0787 160.67 99.5268 160.67Z" fill="#464950"/>
<path opacity="0.67" d="M123.85 152.692C125.961 152.692 127.673 150.98 127.673 148.869C127.673 146.758 125.961 145.046 123.85 145.046C121.739 145.046 120.027 146.758 120.027 148.869C120.027 150.98 121.739 152.692 123.85 152.692Z" fill="#464950"/>
<path opacity="0.67" d="M155.321 159.784C156.301 159.784 157.094 158.99 157.094 158.011C157.094 157.032 156.301 156.238 155.321 156.238C154.342 156.238 153.548 157.032 153.548 158.011C153.548 158.99 154.342 159.784 155.321 159.784Z" fill="#464950"/>
<path d="M404.651 198.901C411.628 198.901 417.283 193.246 417.283 186.269C417.283 179.292 411.628 173.636 404.651 173.636C397.674 173.636 392.018 179.292 392.018 186.269C392.018 193.246 397.674 198.901 404.651 198.901Z" stroke="#464950" stroke-width="5.0808" stroke-miterlimit="10" stroke-linecap="round" stroke-linejoin="round"/>
<path d="M375.23 197.904V244.446V323.012" stroke="#464950" stroke-width="5.0808" stroke-miterlimit="10" stroke-linecap="round" stroke-linejoin="round"/>
<path d="M340.989 323.511C340.989 307.332 354.12 294.201 370.299 294.201C386.478 294.201 399.609 307.332 399.609 323.511H340.989Z" fill="#72B579"/>
<path d="M340.989 323.511C340.989 307.332 354.12 294.201 370.299 294.201C386.478 294.201 399.609 307.332 399.609 323.511H340.989Z" fill="#72B579"/>
<path opacity="0.38" d="M375.452 294.644C373.79 294.367 372.072 294.201 370.299 294.201C354.12 294.201 340.989 307.332 340.989 323.511H351.35C351.35 309.105 361.711 297.082 375.452 294.644Z" fill="#464950"/>
<path d="M340.989 323.511C340.989 307.332 354.12 294.201 370.299 294.201C386.478 294.201 399.609 307.332 399.609 323.511H340.989Z" stroke="#464950" stroke-width="5.0808" stroke-miterlimit="10" stroke-linecap="round" stroke-linejoin="round"/>
<path d="M391.963 234.473L375.23 248.878" stroke="#464950" stroke-width="5.0808" stroke-miterlimit="10" stroke-linecap="round" stroke-linejoin="round"/>
<path d="M375.231 224.499L359.495 208.21" stroke="#464950" stroke-width="5.0808" stroke-miterlimit="10" stroke-linecap="round" stroke-linejoin="round"/>
<path d="M330.96 258.131L320.488 267.716" stroke="#464950" stroke-width="5.0808" stroke-miterlimit="10" stroke-linecap="round" stroke-linejoin="round"/>
<path d="M320.488 250.707L309.518 239.736" stroke="#464950" stroke-width="5.0808" stroke-miterlimit="10" stroke-linecap="round" stroke-linejoin="round"/>
<path opacity="0.51" d="M332.29 244.612C334.401 244.612 336.113 242.901 336.113 240.789C336.113 238.678 334.401 236.966 332.29 236.966C330.178 236.966 328.467 238.678 328.467 240.789C328.467 242.901 330.178 244.612 332.29 244.612Z" fill="#464950"/>
<path opacity="0.51" d="M309.019 224.167C310.029 224.167 310.847 223.348 310.847 222.338C310.847 221.329 310.029 220.51 309.019 220.51C308.009 220.51 307.19 221.329 307.19 222.338C307.19 223.348 308.009 224.167 309.019 224.167Z" fill="#464950"/>
<path opacity="0.43" d="M319.103 212.753C321.367 212.753 323.203 210.918 323.203 208.653C323.203 206.389 321.367 204.553 319.103 204.553C316.838 204.553 315.002 206.389 315.002 208.653C315.002 210.918 316.838 212.753 319.103 212.753Z" fill="#C7CAD1"/>
<path opacity="0.43" d="M377.003 168.538C378.656 168.538 379.995 167.199 379.995 165.546C379.995 163.894 378.656 162.554 377.003 162.554C375.351 162.554 374.011 163.894 374.011 165.546C374.011 167.199 375.351 168.538 377.003 168.538Z" fill="#C7CAD1"/>
<path opacity="0.51" d="M384.981 203.999C386.664 203.999 388.028 202.634 388.028 200.951C388.028 199.268 386.664 197.904 384.981 197.904C383.298 197.904 381.934 199.268 381.934 200.951C381.934 202.634 383.298 203.999 384.981 203.999Z" fill="#464950"/>
<path opacity="0.43" d="M367.362 186.102C369.841 186.102 371.85 184.093 371.85 181.614C371.85 179.136 369.841 177.126 367.362 177.126C364.883 177.126 362.874 179.136 362.874 181.614C362.874 184.093 364.883 186.102 367.362 186.102Z" fill="#C7CAD1"/>
<path opacity="0.43" d="M391.243 219.291C393.599 219.291 395.509 217.381 395.509 215.025C395.509 212.669 393.599 210.759 391.243 210.759C388.887 210.759 386.977 212.669 386.977 215.025C386.977 217.381 388.887 219.291 391.243 219.291Z" fill="#C7CAD1"/>
<path opacity="0.43" d="M329.187 225.607C330.595 225.607 331.736 224.466 331.736 223.059C331.736 221.651 330.595 220.51 329.187 220.51C327.78 220.51 326.639 221.651 326.639 223.059C326.639 224.466 327.78 225.607 329.187 225.607Z" fill="#C7CAD1"/>
<path opacity="0.35" d="M309.85 253.976C310.891 253.976 311.734 253.132 311.734 252.092C311.734 251.052 310.891 250.208 309.85 250.208C308.81 250.208 307.966 251.052 307.966 252.092C307.966 253.132 308.81 253.976 309.85 253.976Z" fill="#C7CAD1"/>
<path d="M382.433 323.511C382.433 313.76 390.356 305.892 400.052 305.892C409.748 305.892 417.671 313.815 417.671 323.511H382.433Z" fill="#AECC75"/>
<path opacity="0.51" d="M404.817 306.501C403.321 306.058 401.714 305.836 400.052 305.836C390.3 305.836 382.433 313.759 382.433 323.455H392.018C391.963 315.421 397.392 308.606 404.817 306.501Z" fill="#464950"/>
<path d="M382.433 323.511C382.433 313.76 390.356 305.892 400.052 305.892C409.748 305.892 417.671 313.815 417.671 323.511H382.433Z" stroke="#464950" stroke-width="5.0808" stroke-miterlimit="10" stroke-linecap="round" stroke-linejoin="round"/>
<path d="M388.307 373.986H399.277" stroke="#464950" stroke-width="5.0808" stroke-miterlimit="10" stroke-linecap="round" stroke-linejoin="round"/>
<path d="M223.472 373.986H379.718" stroke="#464950" stroke-width="5.0808" stroke-miterlimit="10" stroke-linecap="round" stroke-linejoin="round"/>
<path d="M207.681 373.986H213.775" stroke="#464950" stroke-width="5.0808" stroke-miterlimit="10" stroke-linecap="round" stroke-linejoin="round"/>
<path d="M375.23 345.009H216.711V347.225H375.23V345.009Z" stroke="#464950" stroke-width="4.06464" stroke-miterlimit="10" stroke-linecap="round" stroke-linejoin="round"/>
<path d="M376.893 357.863H218.375V361.742H376.893V357.863Z" stroke="#464950" stroke-width="4.06464" stroke-miterlimit="10" stroke-linecap="round" stroke-linejoin="round"/>
<path d="M236.991 373.986H226.463V333.539L231.727 327.666L236.991 333.539V373.986Z" fill="#A58167"/>
<path opacity="0.47" d="M231.45 336.31L236.049 331.212L233.39 328.22L228.126 334.093V374.54H231.45V336.31Z" fill="#A58167"/>
<path d="M236.991 373.986H226.463V333.539L231.727 327.666L236.991 333.539V373.986Z" stroke="#464950" stroke-width="5.0808" stroke-miterlimit="10" stroke-linecap="round" stroke-linejoin="round"/>
<path d="M289.96 373.986H279.433V333.539L284.696 327.666L289.96 333.539V373.986Z" fill="#A58167"/>
<path opacity="0.47" d="M284.419 336.31L289.018 331.212L286.358 328.22L281.095 334.093V374.54H284.419V336.31Z" fill="#A58167"/>
<path d="M316.444 373.986H305.917V333.539L311.181 327.666L316.444 333.539V373.986Z" fill="#A58167"/>
<path opacity="0.47" d="M310.349 335.756L314.948 330.658L312.288 327.666L307.024 333.539V373.986H310.349V335.756Z" fill="#A58167"/>
<path d="M263.476 373.986H252.948V333.539L258.212 327.666L263.476 333.539V373.986Z" fill="#A58167"/>
<path opacity="0.47" d="M257.934 336.31L262.533 331.212L259.873 328.22L254.61 334.093V374.54H257.934V336.31Z" fill="#A58167"/>
<path d="M289.96 373.986H279.433V333.539L284.696 327.666L289.96 333.539V373.986Z" stroke="#464950" stroke-width="5.0808" stroke-miterlimit="10" stroke-linecap="round" stroke-linejoin="round"/>
<path d="M316.444 373.986H305.917V333.539L311.181 327.666L316.444 333.539V373.986Z" stroke="#464950" stroke-width="5.0808" stroke-miterlimit="10" stroke-linecap="round" stroke-linejoin="round"/>
<path d="M263.476 373.986H252.948V333.539L258.212 327.666L263.476 333.539V373.986Z" stroke="#464950" stroke-width="5.0808" stroke-miterlimit="10" stroke-linecap="round" stroke-linejoin="round"/>
<path d="M368.36 373.986H357.833V333.539L363.097 327.666L368.36 333.539V373.986Z" fill="#A58167"/>
<path opacity="0.47" d="M362.82 336.31L367.418 331.212L364.759 328.22L359.495 334.093V374.54H362.82V336.31Z" fill="#A58167"/>
<path d="M368.36 373.986H357.833V333.539L363.097 327.666L368.36 333.539V373.986Z" stroke="#464950" stroke-width="5.0808" stroke-miterlimit="10" stroke-linecap="round" stroke-linejoin="round"/>
<path d="M342.651 373.986H332.124V333.539L337.388 327.666L342.651 333.539V373.986Z" fill="#A58167"/>
<path opacity="0.47" d="M337.111 336.31L341.71 331.212L339.05 328.22L333.787 334.093V374.54H337.111V336.31Z" fill="#A58167"/>
<path d="M342.651 373.986H332.124V333.539L337.388 327.666L342.651 333.539V373.986Z" stroke="#464950" stroke-width="5.0808" stroke-miterlimit="10" stroke-linecap="round" stroke-linejoin="round"/>
<path opacity="0.67" d="M101.299 200.951C102.37 200.951 103.238 200.083 103.238 199.012C103.238 197.941 102.37 197.073 101.299 197.073C100.228 197.073 99.3599 197.941 99.3599 199.012C99.3599 200.083 100.228 200.951 101.299 200.951Z" fill="#464950"/>
<path opacity="0.76" d="M90.4953 206.382C92.2701 206.382 93.7089 204.943 93.7089 203.168C93.7089 201.393 92.2701 199.954 90.4953 199.954C88.7205 199.954 87.2817 201.393 87.2817 203.168C87.2817 204.943 88.7205 206.382 90.4953 206.382Z" fill="#464950"/>
<path opacity="0.43" d="M263.806 300.018C265.122 300.018 266.189 298.952 266.189 297.636C266.189 296.32 265.122 295.253 263.806 295.253C262.49 295.253 261.424 296.32 261.424 297.636C261.424 298.952 262.49 300.018 263.806 300.018Z" fill="#C7CAD1"/>
<path opacity="0.51" d="M257.158 292.815C258.229 292.815 259.098 291.947 259.098 290.876C259.098 289.805 258.229 288.937 257.158 288.937C256.087 288.937 255.219 289.805 255.219 290.876C255.219 291.947 256.087 292.815 257.158 292.815Z" fill="#464950"/>
<path d="M-54.2275 324.231H433.517" stroke="#464950" stroke-width="5.0808" stroke-miterlimit="10" stroke-linecap="round" stroke-linejoin="round"/>
<path d="M306.083 323.788C305.972 322.957 305.972 322.125 306.083 321.239C306.803 314.812 312.565 310.158 318.992 310.823C325.42 311.543 330.074 317.305 329.409 323.732L306.083 323.788Z" fill="#AECC75"/>
<path d="M306.083 323.788C305.972 322.957 305.972 322.125 306.083 321.239C306.803 314.812 312.565 310.158 318.992 310.823C325.42 311.543 330.074 317.305 329.409 323.732L306.083 323.788Z" stroke="#464950" stroke-width="5.0808" stroke-miterlimit="10" stroke-linecap="round" stroke-linejoin="round"/>
<path d="M291.233 324.508C291.178 324.231 291.178 324.009 291.178 323.732C291.178 320.186 294.059 317.305 297.605 317.305C301.151 317.305 304.032 320.186 304.032 323.732C304.032 324.065 304.032 324.397 303.977 324.674L291.233 324.508Z" fill="#464950"/>
<path d="M238.098 324.12C238.043 323.732 238.043 323.4 238.043 323.012C238.043 317.748 242.309 313.482 247.573 313.482C252.837 313.482 257.103 317.748 257.103 323.012C257.103 323.511 257.047 323.954 256.992 324.453L238.098 324.12Z" fill="#464950"/>
<path d="M314.006 35.6179C307.246 35.6179 301.595 40.3275 300.154 46.6438C297.605 42.6546 293.173 40.0505 288.131 40.0505C285.97 40.0505 283.865 40.5491 282.036 41.4356" stroke="#464950" stroke-width="5.0808" stroke-miterlimit="10" stroke-linecap="round" stroke-linejoin="round"/>
<path d="M337.776 53.2373C332.678 53.2373 328.412 56.7833 327.304 61.5483C325.42 58.5563 322.04 56.5617 318.273 56.5617C316.61 56.5617 315.059 56.9496 313.674 57.6144" stroke="#464950" stroke-width="5.0808" stroke-miterlimit="10" stroke-linecap="round" stroke-linejoin="round"/>
<path d="M8.10511 68.3633C0.736029 69.2498 -4.91545 75.5107 -4.91545 83.1014C-4.91545 83.4893 -4.91545 83.8217 -4.86005 84.2096H-17.8252" stroke="#464950" stroke-width="5.0808" stroke-miterlimit="10" stroke-linecap="round" stroke-linejoin="round"/>
<path d="M8.10596 68.3632C8.54921 57.3927 17.6359 48.6384 28.7172 48.6384C38.8566 48.6384 47.2785 55.9521 48.9961 65.5929" stroke="#464950" stroke-width="5.0808" stroke-miterlimit="10" stroke-linecap="round" stroke-linejoin="round"/>
<path d="M40.6299 70.9121C43.9543 67.1444 48.8855 64.762 54.3153 64.762C64.3993 64.762 72.5995 72.9621 72.5995 83.0462C72.5995 83.434 72.5995 83.7664 72.5441 84.1543H90.9391" stroke="#464950" stroke-width="5.0808" stroke-miterlimit="10" stroke-linecap="round" stroke-linejoin="round"/>
<path d="M401.825 16.3365C401.493 8.63502 395.176 2.54028 387.419 2.54028C380.327 2.54028 374.454 7.6377 373.235 14.3973" stroke="#464950" stroke-width="5.0808" stroke-miterlimit="10" stroke-linecap="round" stroke-linejoin="round"/>
<path d="M379.052 18.1098C376.725 15.5057 373.29 13.8435 369.522 13.8435C362.486 13.8435 356.723 19.5504 356.723 26.6424C356.723 26.9195 356.723 27.1411 356.723 27.4181H343.869" stroke="#464950" stroke-width="5.0808" stroke-miterlimit="10" stroke-linecap="round" stroke-linejoin="round"/>
<path d="M318.217 141.389H338.828" stroke="#464950" stroke-width="5.0808" stroke-miterlimit="10" stroke-linecap="round" stroke-linejoin="round"/>
<path d="M302.592 141.389H307.246" stroke="#464950" stroke-width="5.0808" stroke-miterlimit="10" stroke-linecap="round" stroke-linejoin="round"/>
<path d="M337.775 156.238H373.457" stroke="#464950" stroke-width="5.0808" stroke-miterlimit="10" stroke-linecap="round" stroke-linejoin="round"/>
<path d="M321.098 156.238H328.522" stroke="#464950" stroke-width="5.0808" stroke-miterlimit="10" stroke-linecap="round" stroke-linejoin="round"/>
<path d="M257.159 168.151H288.242" stroke="#464950" stroke-width="5.0808" stroke-miterlimit="10" stroke-linecap="round" stroke-linejoin="round"/>
<path d="M275.609 156.238H300.376" stroke="#464950" stroke-width="5.0808" stroke-miterlimit="10" stroke-linecap="round" stroke-linejoin="round"/>
<path d="M159.31 138.951H184.132" stroke="#464950" stroke-width="5.0808" stroke-miterlimit="10" stroke-linecap="round" stroke-linejoin="round"/>
<path d="M184.132 156.238H196.543" stroke="#464950" stroke-width="5.0808" stroke-miterlimit="10" stroke-linecap="round" stroke-linejoin="round"/>
<path d="M330.628 133.355C330.628 128.922 334.229 125.321 338.662 125.321C343.094 125.321 346.696 128.922 346.696 133.355C346.696 137.788 343.094 141.389 338.662 141.389" stroke="#464950" stroke-width="5.0808" stroke-miterlimit="10" stroke-linecap="round" stroke-linejoin="round"/>
<path d="M281.482 174.911C281.482 178.623 284.474 181.615 288.186 181.615C291.898 181.615 294.89 178.623 294.89 174.911C294.89 171.198 291.898 168.206 288.186 168.206" stroke="#464950" stroke-width="5.0808" stroke-miterlimit="10" stroke-linecap="round" stroke-linejoin="round"/>
<path d="M-16.2729 141.389H-2.42129" stroke="#464950" stroke-width="5.0808" stroke-miterlimit="10" stroke-linecap="round" stroke-linejoin="round"/>
<path d="M-10.6221 133.355C-10.6221 128.922 -7.02064 125.321 -2.58811 125.321C1.84442 125.321 5.44585 128.922 5.44585 133.355C5.44585 137.788 1.84442 141.389 -2.58811 141.389" stroke="#464950" stroke-width="5.0808" stroke-miterlimit="10" stroke-linecap="round" stroke-linejoin="round"/>
</svg>
